<!-- File: favicon.svg -->
<svg width="64" height="64" viewBox="0 0 64 64"
     xmlns="http://www.w3.org/2000/svg">
  <!-- Latar belakang lingkaran hitam -->
  <circle cx="32" cy="32" r="32" fill="#1A1A1A"/>

  <!-- Bagian "rambut" (keriting) -->
  <path fill="#FFFFFF" d="
    M16,25
    C16,15 26,10 32,10
    C38,10 48,15 48,25
    C48,30 44,34 40,36
    C36,38 28,38 24,36
    C20,34 16,30 16,25
    Z
  "/>

  <!-- Bagian "wajah" -->
  <path fill="#FFFFFF" d="
    M22,28
    C22,38 26,46 32,46
    C38,46 42,38 42,28
    C42,25 22,25 22,28
    Z
  "/>

  <!-- Kacamata hitam -->
  <path fill="#1A1A1A" d="
    M20,26
    L44,26
    Q46,26 46,28
    L46,30
    Q46,32 44,32
    L20,32
    Q18,32 18,30
    L18,28
    Q18,26 20,26
    Z
  "/>
</svg>
